# xmcd
#
# Track frame offsets: 
#        150
#        16233
#        30126
#        41418
#        55628
#        71354
#        88776
#        102224
#        115105
#        132378
#
# Disc length: 1940 seconds
#
# Revision: 0
# Processed by: cddbd v1.5.2PL0 Copyright (c) Steve Scherf et al.
# Submitted via: ExactAudioCopy v1.3
#
DISCID=7007920a
DTITLE=Cody Jinks - After the Fire
DYEAR=2019
DGENRE=Country
TTITLE0=After the Fire
TTITLE1=Ain't a Train
TTITLE2=Yesterday Again
TTITLE3=Tell'em What It's Like
TTITLE4=Think Like You Think
TTITLE5=William and Wanda
TTITLE6=One Good Decision
TTITLE7=Dreamed with One
TTITLE8=Someone to You
TTITLE9=Tonedeaf Boogie
EXTD=
EXTT0=
EXTT1=
EXTT2=
EXTT3=
EXTT4=
EXTT5=
EXTT6=
EXTT7=
EXTT8=
EXTT9=
PLAYORDER=
